<?xml version="1.0" encoding="UTF-8" standalone="no"?>
<!-- Created with Inkscape (http://www.inkscape.org/) -->

<svg
   xmlns:dc="http://purl.org/dc/elements/1.1/"
   xmlns:cc="http://creativecommons.org/ns#"
   xmlns:rdf="http://www.w3.org/1999/02/22-rdf-syntax-ns#"
   xmlns:svg="http://www.w3.org/2000/svg"
   xmlns="http://www.w3.org/2000/svg"
   xmlns:sodipodi="http://sodipodi.sourceforge.net/DTD/sodipodi-0.dtd"
   xmlns:inkscape="http://www.inkscape.org/namespaces/inkscape"
   width="255.50711"
   height="255.50711"
   id="svg2"
   version="1.1"
   inkscape:version="0.48.4 r9939"
   sodipodi:docname="graph.svg">
  <defs
     id="defs4">
    <clipPath
       id="cp21">
      <polygon
         id="polygon1999"
         points="88,190 73,190 73,190 73,204 88,204 " />
    </clipPath>
    <clipPath
       id="cp19">
      <polygon
         id="polygon1977"
         points="88,190 73,190 73,190 73,204 88,204 " />
    </clipPath>
    <clipPath
       id="cp17">
      <polygon
         id="polygon1955"
         points="88,190 73,190 73,190 73,204 88,204 " />
    </clipPath>
    <clipPath
       id="cp15">
      <polygon
         id="polygon1931"
         points="95,190 74,190 74,190 74,204 95,204 " />
    </clipPath>
    <clipPath
       id="cp13">
      <polygon
         id="polygon1907"
         points="95,190 74,190 74,190 74,204 95,204 " />
    </clipPath>
    <clipPath
       id="cp11">
      <polygon
         id="polygon1889"
         points="88,190 73,190 73,190 73,203.563 88,203.563 " />
    </clipPath>
    <clipPath
       id="cp10">
      <polygon
         id="polygon1874"
         points="434,13 74,13 74,13 74,364 434,364 " />
    </clipPath>
    <clipPath
       id="cp9">
      <polygon
         id="polygon1867"
         points="88,190 73,190 73,190 73,203.563 88,203.563 " />
    </clipPath>
    <clipPath
       id="cp7">
      <polygon
         id="polygon1845"
         points="88,190 73,190 73,190 73,203.563 88,203.563 " />
    </clipPath>
    <clipPath
       id="cp5">
      <polygon
         id="polygon1821"
         points="95,190 73,190 73,190 73,203.563 95,203.563 " />
    </clipPath>
    <clipPath
       id="cp3">
      <polygon
         id="polygon1797"
         points="95,190 73,190 73,190 73,203.563 95,203.563 " />
    </clipPath>
  </defs>
  <sodipodi:namedview
     id="base"
     pagecolor="#ffffff"
     bordercolor="#666666"
     borderopacity="1.0"
     inkscape:pageopacity="0.0"
     inkscape:pageshadow="2"
     inkscape:zoom="1.3875"
     inkscape:cx="123.73156"
     inkscape:cy="131.78775"
     inkscape:document-units="px"
     inkscape:current-layer="layer2"
     showgrid="false"
     inkscape:window-width="1366"
     inkscape:window-height="720"
     inkscape:window-x="0"
     inkscape:window-y="24"
     inkscape:window-maximized="1"
     showguides="true"
     inkscape:guide-bbox="true"
     fit-margin-top="0"
     fit-margin-left="0"
     fit-margin-right="0"
     fit-margin-bottom="0" />
  <metadata
     id="metadata7">
    <rdf:RDF>
      <cc:Work
         rdf:about="">
        <dc:format>image/svg+xml</dc:format>
        <dc:type
           rdf:resource="http://purl.org/dc/dcmitype/StillImage" />
        <dc:title></dc:title>
      </cc:Work>
    </rdf:RDF>
  </metadata>
  <g
     inkscape:label="Layer 1"
     inkscape:groupmode="layer"
     id="layer1"
     transform="translate(-76.268435,-728.64282)"
     style="display:inline">
    <g
       transform="matrix(1.364137,0,0,1.406645,-83.880521,678.58133)"
       clip-path="url(#cp3)"
       id="g8871">
      <clipPath
         id="clipPath9201">
        <polygon
           points="87,140 87,126 73,126 73,126 73,140 "
           id="polygon8874" />
      </clipPath>
      <text
         x="74"
         y="137"
         id="text8876"
         style="font-size:10px;fill:#000000;font-family:SVGTimes">-</text>
      <text
         x="80.5"
         y="137"
         id="text8878"
         style="font-size:10px;fill:#000000;font-family:Times New Roman">3</text>
    </g>
    <g
       transform="matrix(1.364137,0,0,1.406645,-5.568144,678.58133)"
       clip-path="url(#cp5)"
       id="g8895">
      <clipPath
         id="clipPath9216">
        <polygon
           points="87,140 87,126 73,126 73,126 73,140 "
           id="polygon8898" />
      </clipPath>
      <text
         x="74"
         y="137"
         id="text8900"
         style="font-size:10px;fill:#000000;font-family:SVGTimes">-</text>
      <text
         x="80.5"
         y="137"
         id="text8902"
         style="font-size:10px;fill:#000000;font-family:Times New Roman">2</text>
    </g>
    <g
       transform="matrix(1.364137,0,0,1.406645,72.744235,678.58133)"
       clip-path="url(#cp7)"
       id="g8919">
      <clipPath
         id="clipPath9231">
        <polygon
           points="87,140 87,126 73,126 73,126 73,140 "
           id="polygon8922" />
      </clipPath>
      <text
         x="74"
         y="137"
         id="text8924"
         style="font-size:10px;fill:#000000;font-family:SVGTimes">-</text>
      <text
         x="80.5"
         y="137"
         id="text8926"
         style="font-size:10px;fill:#000000;font-family:Times New Roman">1</text>
    </g>
    <g
       transform="matrix(1.364137,0,0,1.406645,-85.62116,678.61608)"
       clip-path="url(#cp9)"
       id="g8943">
      <clipPath
         id="clipPath9246">
        <polygon
           points="434,236 434,13 74,13 74,13 74,236 "
           id="polygon8946" />
      </clipPath>
      <polyline
         style="fill:none;stroke:#000000;stroke-width:0.13535678px;stroke-opacity:1"
         id="polyline8948"
         points="265,124 265,121.563 " />
      <polyline
         style="fill:none;stroke:#000000;stroke-width:0.13535678px;stroke-opacity:1"
         id="polyline8950"
         points="276.438,124 276.438,121.563 " />
      <polyline
         style="fill:none;stroke:#000000;stroke-width:0.13535678px;stroke-opacity:1"
         id="polyline8952"
         points="287.938,124 287.938,121.563 " />
      <polyline
         style="fill:none;stroke:#000000;stroke-width:0.13535678px;stroke-opacity:1"
         id="polyline8954"
         points="299.438,124 299.438,121.563 " />
      <polyline
         style="fill:none;stroke:#000000;stroke-width:0.13535678px;stroke-opacity:1"
         id="polyline8956"
         points="310.938,124 310.938,120 " />
    </g>
    <g
       transform="matrix(1.364137,0,0,1.406645,234.14346,678.58133)"
       clip-path="url(#cp10)"
       id="g8958">
      <clipPath
         id="clipPath9255">
        <polygon
           points="80,140 80,126 73,126 73,126 73,140 "
           id="polygon8961" />
      </clipPath>
    </g>
    <g
       transform="matrix(1.364137,0,0,1.406645,-85.62116,678.61608)"
       clip-path="url(#cp11)"
       id="g8965">
      <clipPath
         id="clipPath9260">
        <polygon
           points="434,236 434,13 74,13 74,13 74,236 "
           id="polygon8968" />
      </clipPath>
      <polyline
         style="fill:none;stroke:#000000;stroke-width:0.13535678px;stroke-opacity:1"
         id="polyline8970"
         points="322.375,124 322.375,121.563 " />
      <polyline
         style="fill:none;stroke:#000000;stroke-width:0.13535678px;stroke-opacity:1"
         id="polyline8972"
         points="333.875,124 333.875,121.563 " />
      <polyline
         style="fill:none;stroke:#000000;stroke-width:0.13535678px;stroke-opacity:1"
         id="polyline8974"
         points="345.375,124 345.375,121.563 " />
      <polyline
         style="fill:none;stroke:#000000;stroke-width:0.13535678px;stroke-opacity:1"
         id="polyline8976"
         points="356.813,124 356.813,121.563 " />
      <polyline
         style="fill:none;stroke:#000000;stroke-width:0.13535678px;stroke-opacity:1"
         id="polyline8978"
         points="368.313,124 368.313,120 " />
    </g>
    <g
       transform="matrix(1.364137,0,0,1.406645,-85.62116,678.61608)"
       clip-path="url(#cp13)"
       id="g8987">
      <clipPath
         id="clipPath9274">
        <polygon
           points="434,236 434,13 74,13 74,13 74,236 "
           id="polygon8990" />
      </clipPath>
      <polyline
         style="fill:none;stroke:#000000;stroke-width:0.13535678px;stroke-opacity:1"
         id="polyline8992"
         points="379.813,124 379.813,121.563 " />
      <polyline
         style="fill:none;stroke:#000000;stroke-width:0.13535678px;stroke-opacity:1"
         id="polyline8994"
         points="391.25,124 391.25,121.563 " />
      <polyline
         style="fill:none;stroke:#000000;stroke-width:0.13535678px;stroke-opacity:1"
         id="polyline8996"
         points="402.75,124 402.75,121.563 " />
      <polyline
         style="fill:none;stroke:#000000;stroke-width:0.13535678px;stroke-opacity:1"
         id="polyline8998"
         points="414.25,124 414.25,121.563 " />
      <polyline
         style="fill:none;stroke:#000000;stroke-width:0.13535678px;stroke-opacity:1"
         id="polyline9000"
         points="425.75,124 425.75,120 " />
    </g>
    <g
       transform="matrix(1.364137,0,0,1.406645,-85.62116,678.61608)"
       clip-path="url(#cp17)"
       id="g9029">
      <clipPath
         id="clipPath9301">
        <polygon
           points="434,236 434,13 74,13 74,13 74,236 "
           id="polygon9032" />
      </clipPath>
      <polyline
         style="fill:none;stroke:#000000;stroke-width:0.13535678px;stroke-opacity:1"
         id="polyline9034"
         points="253.5,219.5 255.875,219.5 " />
      <polyline
         style="fill:none;stroke:#000000;stroke-width:0.13535678px;stroke-opacity:1"
         id="polyline9036"
         points="253.5,212.688 255.875,212.688 " />
      <polyline
         style="fill:none;stroke:#000000;stroke-width:0.13535678px;stroke-opacity:1"
         id="polyline9038"
         points="253.5,205.875 255.875,205.875 " />
      <polyline
         style="fill:none;stroke:#000000;stroke-width:0.13535678px;stroke-opacity:1"
         id="polyline9040"
         points="253.5,199 255.875,199 " />
      <polyline
         style="fill:none;stroke:#000000;stroke-width:0.13535678px;stroke-opacity:1"
         id="polyline9042"
         points="253.5,192.188 257.5,192.188 " />
    </g>
    <g
       transform="matrix(1.364137,0,0,1.406645,-85.62116,678.61608)"
       clip-path="url(#cp19)"
       id="g9053">
      <clipPath
         id="clipPath9316">
        <polygon
           points="434,236 434,13 74,13 74,13 74,236 "
           id="polygon9056" />
      </clipPath>
      <polyline
         style="fill:none;stroke:#000000;stroke-width:0.13535678px;stroke-opacity:1"
         id="polyline9058"
         points="253.5,185.375 255.875,185.375 " />
      <polyline
         style="fill:none;stroke:#000000;stroke-width:0.13535678px;stroke-opacity:1"
         id="polyline9060"
         points="253.5,178.563 255.875,178.563 " />
      <polyline
         style="fill:none;stroke:#000000;stroke-width:0.13535678px;stroke-opacity:1"
         id="polyline9062"
         points="253.5,171.75 255.875,171.75 " />
      <polyline
         style="fill:none;stroke:#000000;stroke-width:0.13535678px;stroke-opacity:1"
         id="polyline9064"
         points="253.5,164.938 255.875,164.938 " />
      <polyline
         style="fill:none;stroke:#000000;stroke-width:0.13535678px;stroke-opacity:1"
         id="polyline9066"
         points="253.5,158.063 257.5,158.063 " />
    </g>
    <g
       transform="matrix(1.364137,0,0,1.406645,-85.62116,678.61608)"
       clip-path="url(#cp21)"
       id="g9077">
      <clipPath
         id="clipPath9331">
        <polygon
           points="434,236 434,13 74,13 74,13 74,236 "
           id="polygon9080" />
      </clipPath>
      <polyline
         style="fill:none;stroke:#000000;stroke-width:0.13535678px;stroke-opacity:1"
         id="polyline9082"
         points="253.5,151.25 255.875,151.25 " />
      <polyline
         style="fill:none;stroke:#000000;stroke-width:0.13535678px;stroke-opacity:1"
         id="polyline9084"
         points="253.5,144.438 255.875,144.438 " />
      <polyline
         style="fill:none;stroke:#000000;stroke-width:0.13535678px;stroke-opacity:1"
         id="polyline9086"
         points="253.5,137.625 255.875,137.625 " />
      <polyline
         style="fill:none;stroke:#000000;stroke-width:0.13535678px;stroke-opacity:1"
         id="polyline9088"
         points="253.5,130.813 255.875,130.813 " />
      <polyline
         style="fill:none;stroke:#000000;stroke-width:0.13535678px;stroke-opacity:1"
         id="polyline9090"
         points="253.5,124 257.5,124 " />
    </g>
    <g
       transform="translate(649.49549,684.00182)"
       clip-path="url(#cp3)"
       id="g10133">
      <clipPath
         id="clipPath10481">
        <polygon
           points="434,236 434,13 74,13 74,13 74,236 "
           id="polygon10136" />
      </clipPath>
      <polyline
         style="fill:none;stroke:#000000;stroke-width:0.1875px;stroke-opacity:1"
         id="polyline10138"
         points="83.9375,124 83.9375,121.563 " />
      <polyline
         style="fill:none;stroke:#000000;stroke-width:0.1875px;stroke-opacity:1"
         id="polyline10140"
         points="94.5,124 94.5,120 " />
    </g>
    <g
       transform="translate(649.49549,684.00182)"
       clip-path="url(#cp5)"
       id="g10151">
      <clipPath
         id="clipPath10493">
        <polygon
           points="434,236 434,13 74,13 74,13 74,236 "
           id="polygon10154" />
      </clipPath>
      <polyline
         style="fill:none;stroke:#000000;stroke-width:0.1875px;stroke-opacity:1"
         id="polyline10156"
         points="105.125,124 105.125,121.563 " />
      <polyline
         style="fill:none;stroke:#000000;stroke-width:0.1875px;stroke-opacity:1"
         id="polyline10158"
         points="115.75,124 115.75,121.563 " />
      <polyline
         style="fill:none;stroke:#000000;stroke-width:0.1875px;stroke-opacity:1"
         id="polyline10160"
         points="126.313,124 126.313,121.563 " />
      <polyline
         style="fill:none;stroke:#000000;stroke-width:0.1875px;stroke-opacity:1"
         id="polyline10162"
         points="136.938,124 136.938,121.563 " />
      <polyline
         style="fill:none;stroke:#000000;stroke-width:0.1875px;stroke-opacity:1"
         id="polyline10164"
         points="147.5,124 147.5,120 " />
    </g>
    <g
       transform="translate(649.49549,684.00182)"
       clip-path="url(#cp7)"
       id="g10175">
      <clipPath
         id="clipPath10508">
        <polygon
           points="434,236 434,13 74,13 74,13 74,236 "
           id="polygon10178" />
      </clipPath>
      <polyline
         style="fill:none;stroke:#000000;stroke-width:0.1875px;stroke-opacity:1"
         id="polyline10180"
         points="158.125,124 158.125,121.563 " />
      <polyline
         style="fill:none;stroke:#000000;stroke-width:0.1875px;stroke-opacity:1"
         id="polyline10182"
         points="168.688,124 168.688,121.563 " />
      <polyline
         style="fill:none;stroke:#000000;stroke-width:0.1875px;stroke-opacity:1"
         id="polyline10184"
         points="179.313,124 179.313,121.563 " />
      <polyline
         style="fill:none;stroke:#000000;stroke-width:0.1875px;stroke-opacity:1"
         id="polyline10186"
         points="189.938,124 189.938,121.563 " />
      <polyline
         style="fill:none;stroke:#000000;stroke-width:0.1875px;stroke-opacity:1"
         id="polyline10188"
         points="200.5,124 200.5,120 " />
    </g>
    <g
       transform="translate(649.49549,684.00182)"
       clip-path="url(#cp9)"
       id="g10199">
      <clipPath
         id="clipPath10523">
        <polygon
           points="434,236 434,13 74,13 74,13 74,236 "
           id="polygon10202" />
      </clipPath>
      <polyline
         style="fill:none;stroke:#000000;stroke-width:0.1875px;stroke-opacity:1"
         id="polyline10204"
         points="211.125,124 211.125,121.563 " />
      <polyline
         style="fill:none;stroke:#000000;stroke-width:0.1875px;stroke-opacity:1"
         id="polyline10206"
         points="221.688,124 221.688,121.563 " />
      <polyline
         style="fill:none;stroke:#000000;stroke-width:0.1875px;stroke-opacity:1"
         id="polyline10208"
         points="232.313,124 232.313,121.563 " />
      <polyline
         style="fill:none;stroke:#000000;stroke-width:0.1875px;stroke-opacity:1"
         id="polyline10210"
         points="242.875,124 242.875,121.563 " />
      <polyline
         style="fill:none;stroke:#000000;stroke-width:0.1875px;stroke-opacity:1"
         id="polyline10212"
         points="253.5,124 253.5,120 " />
    </g>
    <g
       transform="translate(879.48749,683.97712)"
       clip-path="url(#cp11)"
       id="g10229">
      <clipPath
         id="clipPath10541">
        <polygon
           points="80,140 80,126 73,126 73,126 73,140 "
           id="polygon10232" />
      </clipPath>
      <text
         x="74"
         y="137"
         id="text10234"
         style="font-size:10px;fill:#000000;font-family:Times New Roman">1</text>
    </g>
    <g
       transform="translate(932.4795,683.97712)"
       clip-path="url(#cp13)"
       id="g10251">
      <clipPath
         id="clipPath10555">
        <polygon
           points="80,140 80,126 73,126 73,126 73,140 "
           id="polygon10254" />
      </clipPath>
      <text
         x="74"
         y="137"
         id="text10256"
         style="font-size:10px;fill:#000000;font-family:Times New Roman">2</text>
    </g>
    <g
       transform="translate(985.4715,683.97712)"
       clip-path="url(#cp15)"
       id="g10273">
      <clipPath
         id="clipPath10569">
        <polygon
           points="80,140 80,126 73,126 73,126 73,140 "
           id="polygon10276" />
      </clipPath>
      <text
         x="74"
         y="137"
         id="text10278"
         style="font-size:10px;fill:#000000;font-family:Times New Roman">3</text>
    </g>
    <g
       transform="translate(813.99549,763.67736)"
       clip-path="url(#cp17)"
       id="g10297">
      <clipPath
         id="clipPath10584">
        <polygon
           points="87,140 87,126 73,126 73,126 73,140 "
           id="polygon10300" />
      </clipPath>
      <text
         x="74"
         y="137"
         id="text10302"
         style="font-size:10px;fill:#000000;font-family:SVGTimes">-</text>
      <text
         x="80.5"
         y="137"
         id="text10304"
         style="font-size:10px;fill:#000000;font-family:Times New Roman">3</text>
    </g>
    <g
       transform="translate(813.99549,734.11061)"
       clip-path="url(#cp19)"
       id="g10321">
      <clipPath
         id="clipPath10599">
        <polygon
           points="87,140 87,126 73,126 73,126 73,140 "
           id="polygon10324" />
      </clipPath>
      <text
         x="74"
         y="137"
         id="text10326"
         style="font-size:10px;fill:#000000;font-family:SVGTimes">-</text>
      <text
         x="80.5"
         y="137"
         id="text10328"
         style="font-size:10px;fill:#000000;font-family:Times New Roman">2</text>
    </g>
    <g
       transform="translate(813.99549,704.54386)"
       clip-path="url(#cp21)"
       id="g10345">
      <clipPath
         id="clipPath10614">
        <polygon
           points="87,140 87,126 73,126 73,126 73,140 "
           id="polygon10348" />
      </clipPath>
      <text
         x="74"
         y="137"
         id="text10350"
         style="font-size:10px;fill:#000000;font-family:SVGTimes">-</text>
      <text
         x="80.5"
         y="137"
         id="text10352"
         style="font-size:10px;fill:#000000;font-family:Times New Roman">1</text>
    </g>
    <g
       id="layer1-2"
       style="display:inline"
       transform="translate(-64.504505,621.00182)" />
    <g
       id="layer2"
       style="display:inline"
       transform="translate(-64.504505,621.00182)">
      <g
         transform="matrix(0.97794295,0,0,1.0084167,49.037049,460.97476)"
         clip-path="url(#cp3)"
         id="g4170">
        <clipPath
           id="clipPath4172">
          <polygon
             points="87,126 73,126 73,126 73,140 87,140 "
             id="polygon4174" />
        </clipPath>
        <text
           x="74"
           y="137"
           id="text4176"
           style="font-size:10px;fill:#000000;font-family:SVGTimes">-</text>
        <text
           x="80.5"
           y="137"
           id="text4178"
           style="font-size:10px;fill:#000000;font-family:Times New Roman">3</text>
      </g>
      <g
         transform="matrix(0.97794295,0,0,1.0084167,105.1788,460.97476)"
         clip-path="url(#cp5)"
         id="g4180">
        <clipPath
           id="clipPath4182">
          <polygon
             points="87,126 73,126 73,126 73,140 87,140 "
             id="polygon4184" />
        </clipPath>
        <text
           x="74"
           y="137"
           id="text4186"
           style="font-size:10px;fill:#000000;font-family:SVGTimes">-</text>
        <text
           x="80.5"
           y="137"
           id="text4188"
           style="font-size:10px;fill:#000000;font-family:Times New Roman">2</text>
      </g>
      <g
         transform="matrix(0.97794295,0,0,1.0084167,161.32055,460.97476)"
         clip-path="url(#cp7)"
         id="g4190">
        <clipPath
           id="clipPath4192">
          <polygon
             points="87,126 73,126 73,126 73,140 87,140 "
             id="polygon4194" />
        </clipPath>
        <text
           x="74"
           y="137"
           id="text4196"
           style="font-size:10px;fill:#000000;font-family:SVGTimes">-</text>
        <text
           x="80.5"
           y="137"
           id="text4198"
           style="font-size:10px;fill:#000000;font-family:Times New Roman">1</text>
      </g>
      <g
         transform="matrix(0.97794295,0,0,1.0084167,47.789194,460.99967)"
         clip-path="url(#cp9)"
         id="g4200">
        <clipPath
           id="clipPath4202">
          <polygon
             points="434,13 74,13 74,13 74,236 434,236 "
             id="polygon4204" />
        </clipPath>
        <polyline
           style="fill:none;stroke:#000000;stroke-width:0.13535678px;stroke-opacity:1"
           id="polyline4206"
           points="265,124 265,121.563 " />
        <polyline
           style="fill:none;stroke:#000000;stroke-width:0.13535678px;stroke-opacity:1"
           id="polyline4208"
           points="276.438,124 276.438,121.563 " />
        <polyline
           style="fill:none;stroke:#000000;stroke-width:0.13535678px;stroke-opacity:1"
           id="polyline4210"
           points="287.938,124 287.938,121.563 " />
        <polyline
           style="fill:none;stroke:#000000;stroke-width:0.13535678px;stroke-opacity:1"
           id="polyline4212"
           points="299.438,124 299.438,121.563 " />
        <polyline
           style="fill:none;stroke:#000000;stroke-width:0.13535678px;stroke-opacity:1"
           id="polyline4214"
           points="310.938,124 310.938,120 " />
      </g>
      <g
         transform="matrix(0.97794295,0,0,1.0084167,277.02684,460.97476)"
         clip-path="url(#cp10)"
         id="g4216">
        <clipPath
           id="clipPath4218">
          <polygon
             points="80,126 73,126 73,126 73,140 80,140 "
             id="polygon4220" />
        </clipPath>
      </g>
      <g
         transform="matrix(0.97794295,0,0,1.0084167,47.789194,460.99967)"
         clip-path="url(#cp11)"
         id="g4222">
        <clipPath
           id="clipPath4224">
          <polygon
             points="434,13 74,13 74,13 74,236 434,236 "
             id="polygon4226" />
        </clipPath>
        <polyline
           style="fill:none;stroke:#000000;stroke-width:0.13535678px;stroke-opacity:1"
           id="polyline4228"
           points="322.375,124 322.375,121.563 " />
        <polyline
           style="fill:none;stroke:#000000;stroke-width:0.13535678px;stroke-opacity:1"
           id="polyline4230"
           points="333.875,124 333.875,121.563 " />
        <polyline
           style="fill:none;stroke:#000000;stroke-width:0.13535678px;stroke-opacity:1"
           id="polyline4232"
           points="345.375,124 345.375,121.563 " />
        <polyline
           style="fill:none;stroke:#000000;stroke-width:0.13535678px;stroke-opacity:1"
           id="polyline4234"
           points="356.813,124 356.813,121.563 " />
        <polyline
           style="fill:none;stroke:#000000;stroke-width:0.13535678px;stroke-opacity:1"
           id="polyline4236"
           points="368.313,124 368.313,120 " />
      </g>
      <g
         transform="matrix(0.97794295,0,0,1.0084167,47.789194,460.99967)"
         clip-path="url(#cp13)"
         id="g4238">
        <clipPath
           id="clipPath4240">
          <polygon
             points="434,13 74,13 74,13 74,236 434,236 "
             id="polygon4242" />
        </clipPath>
        <polyline
           style="fill:none;stroke:#000000;stroke-width:0.13535678px;stroke-opacity:1"
           id="polyline4244"
           points="379.813,124 379.813,121.563 " />
        <polyline
           style="fill:none;stroke:#000000;stroke-width:0.13535678px;stroke-opacity:1"
           id="polyline4246"
           points="391.25,124 391.25,121.563 " />
        <polyline
           style="fill:none;stroke:#000000;stroke-width:0.13535678px;stroke-opacity:1"
           id="polyline4248"
           points="402.75,124 402.75,121.563 " />
        <polyline
           style="fill:none;stroke:#000000;stroke-width:0.13535678px;stroke-opacity:1"
           id="polyline4250"
           points="414.25,124 414.25,121.563 " />
        <polyline
           style="fill:none;stroke:#000000;stroke-width:0.13535678px;stroke-opacity:1"
           id="polyline4252"
           points="425.75,124 425.75,120 " />
      </g>
      <g
         transform="matrix(0.97794295,0,0,1.0084167,47.789194,460.99967)"
         clip-path="url(#cp17)"
         id="g4254">
        <clipPath
           id="clipPath4256">
          <polygon
             points="434,13 74,13 74,13 74,236 434,236 "
             id="polygon4258" />
        </clipPath>
        <polyline
           style="fill:none;stroke:#000000;stroke-width:0.13535678px;stroke-opacity:1"
           id="polyline4260"
           points="253.5,219.5 255.875,219.5 " />
        <polyline
           style="fill:none;stroke:#000000;stroke-width:0.13535678px;stroke-opacity:1"
           id="polyline4262"
           points="253.5,212.688 255.875,212.688 " />
        <polyline
           style="fill:none;stroke:#000000;stroke-width:0.13535678px;stroke-opacity:1"
           id="polyline4264"
           points="253.5,205.875 255.875,205.875 " />
        <polyline
           style="fill:none;stroke:#000000;stroke-width:0.13535678px;stroke-opacity:1"
           id="polyline4266"
           points="253.5,199 255.875,199 " />
        <polyline
           style="fill:none;stroke:#000000;stroke-width:0.13535678px;stroke-opacity:1"
           id="polyline4268"
           points="253.5,192.188 257.5,192.188 " />
      </g>
      <g
         transform="matrix(0.97794295,0,0,1.0084167,47.789194,460.99967)"
         clip-path="url(#cp19)"
         id="g4270">
        <clipPath
           id="clipPath4272">
          <polygon
             points="434,13 74,13 74,13 74,236 434,236 "
             id="polygon4274" />
        </clipPath>
        <polyline
           style="fill:none;stroke:#000000;stroke-width:0.13535678px;stroke-opacity:1"
           id="polyline4276"
           points="253.5,185.375 255.875,185.375 " />
        <polyline
           style="fill:none;stroke:#000000;stroke-width:0.13535678px;stroke-opacity:1"
           id="polyline4278"
           points="253.5,178.563 255.875,178.563 " />
        <polyline
           style="fill:none;stroke:#000000;stroke-width:0.13535678px;stroke-opacity:1"
           id="polyline4280"
           points="253.5,171.75 255.875,171.75 " />
        <polyline
           style="fill:none;stroke:#000000;stroke-width:0.13535678px;stroke-opacity:1"
           id="polyline4282"
           points="253.5,164.938 255.875,164.938 " />
        <polyline
           style="fill:none;stroke:#000000;stroke-width:0.13535678px;stroke-opacity:1"
           id="polyline4284"
           points="253.5,158.063 257.5,158.063 " />
      </g>
      <g
         transform="matrix(0.97794295,0,0,1.0084167,47.789194,460.99967)"
         clip-path="url(#cp21)"
         id="g4286">
        <clipPath
           id="clipPath4288">
          <polygon
             points="434,13 74,13 74,13 74,236 434,236 "
             id="polygon4290" />
        </clipPath>
        <polyline
           style="fill:none;stroke:#000000;stroke-width:0.13535678px;stroke-opacity:1"
           id="polyline4292"
           points="253.5,151.25 255.875,151.25 " />
        <polyline
           style="fill:none;stroke:#000000;stroke-width:0.13535678px;stroke-opacity:1"
           id="polyline4294"
           points="253.5,144.438 255.875,144.438 " />
        <polyline
           style="fill:none;stroke:#000000;stroke-width:0.13535678px;stroke-opacity:1"
           id="polyline4296"
           points="253.5,137.625 255.875,137.625 " />
        <polyline
           style="fill:none;stroke:#000000;stroke-width:0.13535678px;stroke-opacity:1"
           id="polyline4298"
           points="253.5,130.813 255.875,130.813 " />
        <polyline
           style="fill:none;stroke:#000000;stroke-width:0.13535678px;stroke-opacity:1"
           id="polyline4300"
           points="253.5,124 257.5,124 " />
      </g>
      <g
         transform="matrix(0.71689497,0,0,0.71689497,574.79062,464.86068)"
         clip-path="url(#cp3)"
         id="g4302">
        <clipPath
           id="clipPath4304">
          <polygon
             points="434,13 74,13 74,13 74,236 434,236 "
             id="polygon4306" />
        </clipPath>
        <polyline
           style="fill:none;stroke:#000000;stroke-width:0.1875px;stroke-opacity:1"
           id="polyline4308"
           points="83.9375,124 83.9375,121.563 " />
        <polyline
           style="fill:none;stroke:#000000;stroke-width:0.1875px;stroke-opacity:1"
           id="polyline4310"
           points="94.5,124 94.5,120 " />
      </g>
      <g
         transform="matrix(0.71689497,0,0,0.71689497,574.79062,464.86068)"
         clip-path="url(#cp5)"
         id="g4312">
        <clipPath
           id="clipPath4314">
          <polygon
             points="434,13 74,13 74,13 74,236 434,236 "
             id="polygon4316" />
        </clipPath>
        <polyline
           style="fill:none;stroke:#000000;stroke-width:0.1875px;stroke-opacity:1"
           id="polyline4318"
           points="105.125,124 105.125,121.563 " />
        <polyline
           style="fill:none;stroke:#000000;stroke-width:0.1875px;stroke-opacity:1"
           id="polyline4320"
           points="115.75,124 115.75,121.563 " />
        <polyline
           style="fill:none;stroke:#000000;stroke-width:0.1875px;stroke-opacity:1"
           id="polyline4322"
           points="126.313,124 126.313,121.563 " />
        <polyline
           style="fill:none;stroke:#000000;stroke-width:0.1875px;stroke-opacity:1"
           id="polyline4324"
           points="136.938,124 136.938,121.563 " />
        <polyline
           style="fill:none;stroke:#000000;stroke-width:0.1875px;stroke-opacity:1"
           id="polyline4326"
           points="147.5,124 147.5,120 " />
      </g>
      <g
         transform="matrix(0.71689497,0,0,0.71689497,574.79062,464.86068)"
         clip-path="url(#cp7)"
         id="g4328">
        <clipPath
           id="clipPath4330">
          <polygon
             points="434,13 74,13 74,13 74,236 434,236 "
             id="polygon4332" />
        </clipPath>
        <polyline
           style="fill:none;stroke:#000000;stroke-width:0.1875px;stroke-opacity:1"
           id="polyline4334"
           points="158.125,124 158.125,121.563 " />
        <polyline
           style="fill:none;stroke:#000000;stroke-width:0.1875px;stroke-opacity:1"
           id="polyline4336"
           points="168.688,124 168.688,121.563 " />
        <polyline
           style="fill:none;stroke:#000000;stroke-width:0.1875px;stroke-opacity:1"
           id="polyline4338"
           points="179.313,124 179.313,121.563 " />
        <polyline
           style="fill:none;stroke:#000000;stroke-width:0.1875px;stroke-opacity:1"
           id="polyline4340"
           points="189.938,124 189.938,121.563 " />
        <polyline
           style="fill:none;stroke:#000000;stroke-width:0.1875px;stroke-opacity:1"
           id="polyline4342"
           points="200.5,124 200.5,120 " />
      </g>
      <g
         transform="matrix(0.71689497,0,0,0.71689497,574.79062,464.86068)"
         clip-path="url(#cp9)"
         id="g4344">
        <clipPath
           id="clipPath4346">
          <polygon
             points="434,13 74,13 74,13 74,236 434,236 "
             id="polygon4348" />
        </clipPath>
        <polyline
           style="fill:none;stroke:#000000;stroke-width:0.1875px;stroke-opacity:1"
           id="polyline4350"
           points="211.125,124 211.125,121.563 " />
        <polyline
           style="fill:none;stroke:#000000;stroke-width:0.1875px;stroke-opacity:1"
           id="polyline4352"
           points="221.688,124 221.688,121.563 " />
        <polyline
           style="fill:none;stroke:#000000;stroke-width:0.1875px;stroke-opacity:1"
           id="polyline4354"
           points="232.313,124 232.313,121.563 " />
        <polyline
           style="fill:none;stroke:#000000;stroke-width:0.1875px;stroke-opacity:1"
           id="polyline4356"
           points="242.875,124 242.875,121.563 " />
        <polyline
           style="fill:none;stroke:#000000;stroke-width:0.1875px;stroke-opacity:1"
           id="polyline4358"
           points="253.5,124 253.5,120 " />
      </g>
      <g
         transform="matrix(0.71689497,0,0,0.71689497,739.67073,464.84297)"
         clip-path="url(#cp11)"
         id="g4360">
        <clipPath
           id="clipPath4362">
          <polygon
             points="80,126 73,126 73,126 73,140 80,140 "
             id="polygon4364" />
        </clipPath>
        <text
           x="74"
           y="137"
           id="text4366"
           style="font-size:10px;fill:#000000;font-family:Times New Roman">1</text>
      </g>
      <g
         transform="matrix(0.71689497,0,0,0.71689497,777.66043,464.84297)"
         clip-path="url(#cp13)"
         id="g4368">
        <clipPath
           id="clipPath4370">
          <polygon
             points="80,126 73,126 73,126 73,140 80,140 "
             id="polygon4372" />
        </clipPath>
        <text
           x="74"
           y="137"
           id="text4374"
           style="font-size:10px;fill:#000000;font-family:Times New Roman">2</text>
      </g>
      <g
         transform="matrix(0.71689497,0,0,0.71689497,815.65013,464.84297)"
         clip-path="url(#cp15)"
         id="g4376">
        <clipPath
           id="clipPath4378">
          <polygon
             points="80,126 73,126 73,126 73,140 80,140 "
             id="polygon4380" />
        </clipPath>
        <text
           x="74"
           y="137"
           id="text4382"
           style="font-size:10px;fill:#000000;font-family:Times New Roman">3</text>
      </g>
      <g
         transform="matrix(0.71689497,0,0,0.71689497,692.71985,521.97967)"
         clip-path="url(#cp17)"
         id="g4384">
        <clipPath
           id="clipPath4386">
          <polygon
             points="87,126 73,126 73,126 73,140 87,140 "
             id="polygon4388" />
        </clipPath>
        <text
           x="74"
           y="137"
           id="text4390"
           style="font-size:10px;fill:#000000;font-family:SVGTimes">-</text>
        <text
           x="80.5"
           y="137"
           id="text4392"
           style="font-size:10px;fill:#000000;font-family:Times New Roman">3</text>
      </g>
      <g
         transform="matrix(0.71689497,0,0,0.71689497,692.71985,500.78342)"
         clip-path="url(#cp19)"
         id="g4394">
        <clipPath
           id="clipPath4396">
          <polygon
             points="87,126 73,126 73,126 73,140 87,140 "
             id="polygon4398" />
        </clipPath>
        <text
           x="74"
           y="137"
           id="text4400"
           style="font-size:10px;fill:#000000;font-family:SVGTimes">-</text>
        <text
           x="80.5"
           y="137"
           id="text4402"
           style="font-size:10px;fill:#000000;font-family:Times New Roman">2</text>
      </g>
      <g
         transform="matrix(0.71689497,0,0,0.71689497,692.71985,479.58717)"
         clip-path="url(#cp21)"
         id="g4404">
        <clipPath
           id="clipPath4406">
          <polygon
             points="87,126 73,126 73,126 73,140 87,140 "
             id="polygon4408" />
        </clipPath>
        <text
           x="74"
           y="137"
           id="text4410"
           style="font-size:10px;fill:#000000;font-family:SVGTimes">-</text>
        <text
           x="80.5"
           y="137"
           id="text4412"
           style="font-size:10px;fill:#000000;font-family:Times New Roman">1</text>
      </g>
      <rect
         style="color:#000000;fill:#bdd1ee;fill-opacity:1;stroke:none;stroke-width:4;marker:none;visibility:visible;display:inline;overflow:visible;enable-background:accumulate"
         id="rect5648"
         width="22.940639"
         height="12.917027"
         x="165.99492"
         y="346.33014" />
      <rect
         y="329.27966"
         x="191.44615"
         height="29.967503"
         width="22.940639"
         id="rect5725"
         style="color:#000000;fill:#bdd1ee;fill-opacity:1;stroke:none;stroke-width:4;marker:none;visibility:visible;display:inline;overflow:visible;enable-background:accumulate" />
      <rect
         style="color:#000000;fill:#bdd1ee;fill-opacity:1;stroke:none;stroke-width:4;marker:none;visibility:visible;display:inline;overflow:visible;enable-background:accumulate"
         id="rect5727"
         width="22.940639"
         height="59.41832"
         x="216.89748"
         y="299.82886" />
      <rect
         y="260.0444"
         x="242.34868"
         height="99.202759"
         width="22.940639"
         id="rect5729"
         style="color:#000000;fill:#bdd1ee;fill-opacity:1;stroke:none;stroke-width:4;marker:none;visibility:visible;display:inline;overflow:visible;enable-background:accumulate" />
      <rect
         style="color:#000000;fill:#bdd1ee;fill-opacity:1;stroke:none;stroke-width:4;marker:none;visibility:visible;display:inline;overflow:visible;enable-background:accumulate"
         id="rect5731"
         width="22.940639"
         height="146.73741"
         x="267.7999"
         y="212.50975" />
      <rect
         y="172.20863"
         x="293.25113"
         height="187.03853"
         width="22.940639"
         id="rect5733"
         style="color:#000000;fill:#bdd1ee;fill-opacity:1;stroke:none;stroke-width:4;marker:none;visibility:visible;display:inline;overflow:visible;enable-background:accumulate" />
      <rect
         style="color:#000000;fill:#bdd1ee;fill-opacity:1;stroke:none;stroke-width:4;marker:none;visibility:visible;display:inline;overflow:visible;enable-background:accumulate"
         id="rect5735"
         width="22.940639"
         height="219.07275"
         x="318.7023"
         y="140.17441" />
      <rect
         y="120.54052"
         x="344.15353"
         height="238.70663"
         width="22.940639"
         id="rect5737"
         style="color:#000000;fill:#bdd1ee;fill-opacity:1;stroke:none;stroke-width:4;marker:none;visibility:visible;display:inline;overflow:visible;enable-background:accumulate" />
      <rect
         style="color:#000000;fill:#bdd1ee;fill-opacity:1;stroke:none;stroke-width:4;marker:none;visibility:visible;display:inline;overflow:visible;enable-background:accumulate"
         id="rect5739"
         width="22.940639"
         height="248.52357"
         x="369.60474"
         y="110.72358" />
      <path
         style="fill:none;stroke:#ce2a07;stroke-width:2.86757994;stroke-miterlimit:4;stroke-opacity:1;stroke-dasharray:none;stroke-dashoffset:0;display:inline"
         id="polyline5585"
         d="m 144.79014,358.09756 c 24.27088,-3.11401 48.67773,-14.16347 69.00503,-37.66483 32.52713,-37.01931 55.63211,-91.96431 83.96175,-136.97214 18.52645,-30.23177 40.69006,-55.57001 65.99676,-65.53759 9.5388,-4.13723 19.28432,-6.4257 29.0821,-7.8711"
         inkscape:connector-curvature="0" />
      <path
         style="fill:none;stroke:#0d1b31;stroke-width:2.8675797;stroke-linecap:butt;stroke-linejoin:miter;stroke-miterlimit:4;stroke-opacity:1;stroke-dasharray:none"
         d="m 143.24009,109.07479 0,252.63953"
         id="path5535"
         inkscape:connector-curvature="0" />
      <path
         style="fill:none;stroke:#0d1b31;stroke-width:1.7922374;stroke-linecap:butt;stroke-linejoin:miter;stroke-miterlimit:4;stroke-opacity:1;stroke-dasharray:none"
         d="m 144.47396,110.07841 12.40036,0"
         id="path5539"
         inkscape:connector-curvature="0" />
      <path
         inkscape:connector-curvature="0"
         id="path5541"
         d="m 144.47396,135.52965 12.40036,0"
         style="fill:none;stroke:#0d1b31;stroke-width:1.7922374;stroke-linecap:butt;stroke-linejoin:miter;stroke-miterlimit:4;stroke-opacity:1;stroke-dasharray:none" />
      <path
         style="fill:none;stroke:#0d1b31;stroke-width:1.7922374;stroke-linecap:butt;stroke-linejoin:miter;stroke-miterlimit:4;stroke-opacity:1;stroke-dasharray:none"
         d="m 144.47396,160.98088 12.40036,0"
         id="path5543"
         inkscape:connector-curvature="0" />
      <path
         inkscape:connector-curvature="0"
         id="path5545"
         d="m 144.47396,186.43209 12.40036,0"
         style="fill:none;stroke:#0d1b31;stroke-width:1.7922374;stroke-linecap:butt;stroke-linejoin:miter;stroke-miterlimit:4;stroke-opacity:1;stroke-dasharray:none" />
      <path
         style="fill:none;stroke:#0d1b31;stroke-width:1.7922374;stroke-linecap:butt;stroke-linejoin:miter;stroke-miterlimit:4;stroke-opacity:1;stroke-dasharray:none"
         d="m 144.47396,211.88333 12.40036,0"
         id="path5547"
         inkscape:connector-curvature="0" />
      <path
         inkscape:connector-curvature="0"
         id="path5549"
         d="m 144.47396,237.33453 12.40036,0"
         style="fill:none;stroke:#0d1b31;stroke-width:1.7922374;stroke-linecap:butt;stroke-linejoin:miter;stroke-miterlimit:4;stroke-opacity:1;stroke-dasharray:none" />
      <path
         style="fill:none;stroke:#0d1b31;stroke-width:1.7922374;stroke-linecap:butt;stroke-linejoin:miter;stroke-miterlimit:4;stroke-opacity:1;stroke-dasharray:none"
         d="m 144.47396,262.78577 12.40036,0"
         id="path5551"
         inkscape:connector-curvature="0" />
      <path
         inkscape:connector-curvature="0"
         id="path5553"
         d="m 144.47396,288.23699 12.40036,0"
         style="fill:none;stroke:#0d1b31;stroke-width:1.7922374;stroke-linecap:butt;stroke-linejoin:miter;stroke-miterlimit:4;stroke-opacity:1;stroke-dasharray:none" />
      <path
         style="fill:none;stroke:#0d1b31;stroke-width:1.7922374;stroke-linecap:butt;stroke-linejoin:miter;stroke-miterlimit:4;stroke-opacity:1;stroke-dasharray:none"
         d="m 144.47396,313.68821 12.40036,0"
         id="path5555"
         inkscape:connector-curvature="0" />
      <path
         inkscape:connector-curvature="0"
         id="path5557"
         d="m 144.47396,339.13944 12.40036,0"
         style="fill:none;stroke:#0d1b31;stroke-width:1.7922374;stroke-linecap:butt;stroke-linejoin:miter;stroke-miterlimit:4;stroke-opacity:1;stroke-dasharray:none" />
      <path
         style="fill:none;stroke:#0d1b31;stroke-width:2.8675797;stroke-linecap:butt;stroke-linejoin:miter;stroke-miterlimit:4;stroke-opacity:1;stroke-dasharray:none"
         d="m 394.84626,360.68095 -252.63953,0"
         id="path5600"
         inkscape:connector-curvature="0" />
      <path
         style="fill:none;stroke:#0d1b31;stroke-width:1.7922374;stroke-linecap:butt;stroke-linejoin:miter;stroke-miterlimit:4;stroke-opacity:1;stroke-dasharray:none"
         d="m 393.84264,359.44709 0,-12.40036"
         id="path5602"
         inkscape:connector-curvature="0" />
      <path
         inkscape:connector-curvature="0"
         id="path5604"
         d="m 368.39139,359.44709 0,-12.40036"
         style="fill:none;stroke:#0d1b31;stroke-width:1.7922374;stroke-linecap:butt;stroke-linejoin:miter;stroke-miterlimit:4;stroke-opacity:1;stroke-dasharray:none" />
      <path
         style="fill:none;stroke:#0d1b31;stroke-width:1.7922374;stroke-linecap:butt;stroke-linejoin:miter;stroke-miterlimit:4;stroke-opacity:1;stroke-dasharray:none"
         d="m 342.94017,359.44709 0,-12.40036"
         id="path5606"
         inkscape:connector-curvature="0" />
      <path
         inkscape:connector-curvature="0"
         id="path5608"
         d="m 317.48896,359.44709 0,-12.40036"
         style="fill:none;stroke:#0d1b31;stroke-width:1.7922374;stroke-linecap:butt;stroke-linejoin:miter;stroke-miterlimit:4;stroke-opacity:1;stroke-dasharray:none" />
      <path
         style="fill:none;stroke:#0d1b31;stroke-width:1.7922374;stroke-linecap:butt;stroke-linejoin:miter;stroke-miterlimit:4;stroke-opacity:1;stroke-dasharray:none"
         d="m 292.03772,359.44709 0,-12.40036"
         id="path5610"
         inkscape:connector-curvature="0" />
      <path
         inkscape:connector-curvature="0"
         id="path5612"
         d="m 266.58652,359.44709 0,-12.40036"
         style="fill:none;stroke:#0d1b31;stroke-width:1.7922374;stroke-linecap:butt;stroke-linejoin:miter;stroke-miterlimit:4;stroke-opacity:1;stroke-dasharray:none" />
      <path
         style="fill:none;stroke:#0d1b31;stroke-width:1.7922374;stroke-linecap:butt;stroke-linejoin:miter;stroke-miterlimit:4;stroke-opacity:1;stroke-dasharray:none"
         d="m 241.13528,359.44709 0,-12.40036"
         id="path5614"
         inkscape:connector-curvature="0" />
      <path
         inkscape:connector-curvature="0"
         id="path5616"
         d="m 215.68406,359.44709 0,-12.40036"
         style="fill:none;stroke:#0d1b31;stroke-width:1.7922374;stroke-linecap:butt;stroke-linejoin:miter;stroke-miterlimit:4;stroke-opacity:1;stroke-dasharray:none" />
      <path
         style="fill:none;stroke:#0d1b31;stroke-width:1.7922374;stroke-linecap:butt;stroke-linejoin:miter;stroke-miterlimit:4;stroke-opacity:1;stroke-dasharray:none"
         d="m 190.23284,359.44709 0,-12.40036"
         id="path5618"
         inkscape:connector-curvature="0" />
      <path
         inkscape:connector-curvature="0"
         id="path5620"
         d="m 164.78161,359.44709 0,-12.40036"
         style="fill:none;stroke:#0d1b31;stroke-width:1.7922374;stroke-linecap:butt;stroke-linejoin:miter;stroke-miterlimit:4;stroke-opacity:1;stroke-dasharray:none" />
    </g>
    <g
       id="layer3"
       style="display:inline"
       transform="translate(-64.504505,621.00182)" />
  </g>
</svg>
